<svg width="49" height="41" viewBox="0 0 49 41" fill="none" xmlns="http://www.w3.org/2000/svg">
<path fill-rule="evenodd" clip-rule="evenodd" d="M43.6237 0.898458C39.4514 2.56417 38.1186 3.0871 35.1627 4.21968C33.5309 4.84485 31.3058 5.70464 30.2179 6.13044C28.0069 6.99579 26.0898 7.7325 22.5261 9.08685C21.1965 9.59204 19.5153 10.2456 18.7901 10.539C18.0648 10.8324 16.1364 11.578 14.5046 12.1961C12.8728 12.8141 10.9444 13.5608 10.2192 13.8553C9.49393 14.1496 7.56547 14.8979 5.9337 15.5177C0.832696 17.4553 0 17.9379 0 18.956C0 19.257 0.215372 19.6426 0.494475 19.8411C0.959282 20.1718 6.84244 22.1526 10.9883 23.3743L12.8564 23.925L14.8343 22.6838C15.9221 22.0012 17.3066 21.1245 17.911 20.7355C18.5154 20.3467 22.4712 17.8543 26.7017 15.197C30.9322 12.5398 34.7396 10.1414 35.1627 9.86726C38.5016 7.70345 39.2972 7.25725 39.8593 7.23352C40.2118 7.21844 40.5397 7.31913 40.5881 7.45707C40.6364 7.59501 37.334 10.7335 33.2494 14.4313C29.1646 18.1291 24.9354 21.9581 23.8509 22.9403C22.7665 23.9226 21.2662 25.3248 20.5168 26.0566L19.1544 27.3873L18.8182 32.924C18.6334 35.9691 18.5219 38.5008 18.5707 38.5503C18.9276 38.9102 20.2282 37.9444 22.865 35.3619C24.5411 33.7203 26.0019 32.3771 26.1114 32.3771C26.2206 32.3771 27.7333 33.4256 29.4727 34.7072C38.3203 41.2261 37.7795 40.8675 38.933 40.9793C40.0318 41.0857 40.6338 40.7895 41.0988 39.9128C41.2755 39.5797 42.1021 35.8628 43.9586 27.0546C44.4602 24.6761 45.2093 21.1334 45.6238 19.1818C46.8673 13.3284 47.8507 8.69232 48.4467 5.87563C49.1783 2.41758 49.1832 1.26416 48.4685 0.543184C47.6571 -0.275811 46.3192 -0.177567 43.6237 0.898458Z" fill="white"/>
</svg>
