<svg width="58" height="46" viewBox="0 0 58 46" fill="none" xmlns="http://www.w3.org/2000/svg">
<path d="M57.999 5.44887C56.3839 7.79447 54.4024 9.79398 52.0545 11.4474C52.0777 11.8908 52.0893 12.392 52.0893 12.951C52.0893 16.0567 51.6255 19.1662 50.698 22.2794C49.7705 25.3926 48.3536 28.3726 46.4476 31.2192C44.5415 34.0658 42.271 36.5876 39.6361 38.7847C37.0012 40.9818 33.8339 42.7336 30.1342 44.0402C26.4346 45.3468 22.4695 46.0001 18.2391 46.0001C11.6368 46.0001 5.5568 44.2598 -0.00100708 40.7794C0.985439 40.8866 1.93152 40.9402 2.83725 40.9402C8.35291 40.9402 13.2793 39.2815 17.6164 35.964C15.0446 35.918 12.7415 35.1451 10.7069 33.6452C8.67226 32.1454 7.27209 30.2289 6.50636 27.8958C7.26323 28.0365 8.01025 28.1069 8.74739 28.1069C9.80847 28.1069 10.8526 27.9718 11.8796 27.7016C9.13514 27.1649 6.85835 25.8303 5.04926 23.6977C3.24023 21.5652 2.33572 19.1038 2.33572 16.3137V16.1699C4.0203 17.0805 5.81717 17.5649 7.72634 17.6231C6.10052 16.5648 4.81149 15.1849 3.85925 13.4831C2.90694 11.7814 2.43079 9.93985 2.43079 7.95844C2.43079 5.86873 2.96712 3.9228 4.03979 2.12068C7.02438 5.69662 10.6408 8.55464 14.8892 10.6947C19.1375 12.8348 23.6952 14.0234 28.5623 14.2604C28.3547 13.4157 28.2507 12.5343 28.2503 11.616C28.2503 8.40997 29.4124 5.67244 31.7365 3.40348C34.0606 1.13451 36.8646 3.05176e-05 40.1483 3.05176e-05C43.5863 3.05176e-05 46.4821 1.22227 48.8358 3.66674C51.525 3.14666 54.043 2.20598 56.3898 0.844683C55.4856 3.62278 53.7435 5.76589 51.1632 7.27401C53.5347 6.99887 55.8133 6.39049 57.9989 5.44887H57.999Z" fill="white"/>
</svg>
