<svg width="34" height="28" viewBox="0 0 34 28" fill="none" xmlns="http://www.w3.org/2000/svg">
<path fill-rule="evenodd" clip-rule="evenodd" d="M27.4132 0.13036C27.1897 0.193581 26.8602 0.330021 26.6808 0.433568C26.2689 0.671385 25.6482 1.25182 25.4844 1.55233C25.4155 1.67883 25.3245 1.78232 25.2823 1.78232C25.2401 1.78232 23.9077 1.48332 22.3215 1.11794C19.773 0.530866 19.4098 0.461791 19.1984 0.524419C18.7107 0.668754 18.6941 0.706844 17.4996 4.41376C16.8874 6.31333 16.3743 7.88056 16.3592 7.89648C16.3441 7.9124 15.9238 7.9493 15.4252 7.97845C12.67 8.13975 10.0849 8.80301 7.7639 9.94407L6.54974 10.541L6.16605 10.3077C5.46373 9.88065 5.09123 9.78467 4.11794 9.77973C3.04924 9.77427 2.54112 9.91084 1.79499 10.4039C0.969965 10.9492 0.397535 11.7231 0.118976 12.6699C-0.0388788 13.2065 -0.0398108 14.2486 0.117112 14.7716C0.356923 15.5708 0.901259 16.3935 1.46337 16.8065L1.72116 16.9958L1.69805 17.7604C1.61284 20.5777 3.1511 23.1322 6.10101 25.072C8.34293 26.5464 10.8452 27.4195 14.1451 27.8789C15.3084 28.0408 18.5464 28.0402 19.723 27.8779C22.1361 27.5449 23.9658 27.0331 25.7714 26.1862C28.883 24.7267 30.9862 22.6414 31.8064 20.2024C32.0848 19.3748 32.1963 18.6277 32.1725 17.7512L32.1548 17.1017L32.5236 16.8127C33.4792 16.0636 33.997 14.9798 34 13.7225C34.0033 12.3413 33.3771 11.1777 32.2184 10.412C31.5348 9.96012 31.0388 9.80171 30.1781 9.76033C29.1785 9.7123 28.4596 9.89111 27.7224 10.3713L27.3592 10.608L27.1232 10.4666C26.9935 10.3889 26.4379 10.1083 25.8887 9.84295C23.9034 8.88419 21.8606 8.32514 19.3264 8.04706L18.29 7.93332L19.1698 5.21536C19.6537 3.7205 20.0602 2.48728 20.073 2.47491C20.1053 2.44393 24.8617 3.54157 24.9125 3.5917C24.935 3.61387 24.9911 3.8153 25.0373 4.03937C25.2824 5.22727 26.2626 6.23932 27.4777 6.55904C27.8809 6.66509 28.7608 6.67548 29.1843 6.57911C30.8192 6.20702 31.9712 4.53434 31.728 2.88555C31.4312 0.873151 29.3915 -0.429282 27.4132 0.13036ZM28.8551 1.88231C29.2789 2.03 29.5488 2.26288 29.7433 2.64859C30.1568 3.46861 29.8209 4.38087 28.9727 4.74144C27.5899 5.32924 26.2148 3.76682 27.0278 2.53142C27.4331 1.91553 28.1847 1.64857 28.8551 1.88231ZM12.8871 14.1001C13.3845 14.3252 13.7402 14.658 14.0114 15.1522C14.2239 15.5394 14.2376 15.6025 14.2366 16.1895C14.2357 16.7176 14.2104 16.8654 14.0728 17.1434C13.512 18.276 12.131 18.7744 11.004 18.2508C9.36695 17.4903 9.13553 15.472 10.5597 14.3756C11.2139 13.872 12.1404 13.7623 12.8871 14.1001ZM23.012 14.1025C24.0378 14.5665 24.6057 15.7541 24.2994 16.7949C23.9799 17.881 22.8434 18.6178 21.761 18.4406C20.9491 18.3077 20.363 17.9068 19.9919 17.2306C19.7773 16.8395 19.7636 16.7768 19.7639 16.1895C19.7642 15.6323 19.7845 15.5264 19.9511 15.2133C20.279 14.5972 20.8887 14.1147 21.5534 13.9455C21.9333 13.8487 22.6127 13.9218 23.012 14.1025ZM12.3846 21.354C12.5165 21.4085 12.7394 21.5556 12.8798 21.681C13.2433 22.0055 13.8606 22.2948 14.5987 22.4866C15.1498 22.6299 15.4232 22.6569 16.6141 22.6855C18.9238 22.7408 20.2321 22.4447 21.1515 21.6584C21.693 21.1954 22.1318 21.1556 22.5638 21.5304C22.9785 21.8902 22.9984 22.4476 22.6111 22.8521C22.065 23.4223 20.9805 23.9955 19.9712 24.2472C17.9198 24.759 14.9564 24.6558 13.272 24.0139C12.2539 23.626 11.2676 22.9007 11.1446 22.4495C11.0239 22.0063 11.2599 21.5446 11.7077 21.3479C11.969 21.2332 12.0946 21.2343 12.3846 21.354Z" fill="white"/>
</svg>
