<svg width="62" height="46" viewBox="0 0 62 46" fill="none" xmlns="http://www.w3.org/2000/svg">
<path d="M14.2005 39.7837C14.209 39.7794 14.2175 39.7794 14.226 39.7837C14.2175 39.8618 14.2345 39.9311 14.3025 39.9745C14.6762 40.1955 15.0626 40.3993 15.4066 40.668C15.6953 40.8934 16.1242 40.8891 16.3153 41.2575C16.3196 41.2662 16.3578 41.2705 16.3663 41.2619C16.4555 41.1838 16.5192 41.2792 16.5701 41.3139C17.0288 41.6 17.5341 41.795 18.0182 42.0248C18.3919 42.2068 18.7784 42.3846 19.1775 42.5189C19.5342 42.6403 19.8825 42.792 20.2349 42.9307C20.3453 42.9741 20.3411 43.0304 20.2816 43.1301C19.9971 43.5939 19.6192 43.9841 19.3219 44.4392C19.0629 44.838 18.7316 45.1891 18.4896 45.6009C18.3112 45.9043 17.9375 46.0604 17.7337 45.9737C17.4364 45.8523 17.1349 45.8957 16.8419 45.8697C16.154 45.8176 15.4745 45.6919 14.7993 45.5749C14.2558 45.4795 13.7122 45.3668 13.1771 45.2238C12.7015 45.0981 12.2216 44.9811 11.7545 44.8293C11.4403 44.7296 11.1218 44.6473 10.816 44.5129C10.5018 44.3742 10.1536 44.3178 9.83507 44.1705C9.58877 44.0578 9.32123 43.9927 9.07493 43.867C8.87959 43.7673 8.64603 43.7413 8.45918 43.6286C8.22986 43.4899 7.97507 43.3945 7.74151 43.2905C7.5037 43.1865 7.27014 43.0608 7.04082 42.9394C6.66712 42.7443 6.27644 42.584 5.92397 42.3455C5.58425 42.1115 5.2063 41.9294 4.89206 41.665C4.70096 41.5089 4.47589 41.4396 4.28904 41.2922C3.93233 41.0148 3.55863 40.7677 3.20616 40.4816C2.67534 40.0481 2.13603 39.619 1.66466 39.1249C1.39712 38.8431 1.09137 38.6047 0.828082 38.3143C0.573288 38.0325 0.348219 37.7161 0.0636986 37.4603C0 37.3996 0 37.3129 0 37.2262C0.00424658 36.6411 0.0169863 36.0602 0.114658 35.475C0.229315 34.7815 0.191096 34.0749 0.284521 33.3727C0.348219 32.9132 0.411918 32.4494 0.441644 31.9856C0.475616 31.4437 0.547808 30.9019 0.64548 30.3687C0.713425 29.9959 0.662466 29.6102 0.806849 29.2504C0.840822 29.168 0.904521 29.0943 0.896028 28.9903C0.870548 28.7302 0.985206 28.4875 0.972466 28.2274C0.963973 27.9543 1.0489 27.6855 1.1126 27.4255C1.19329 27.0873 1.15507 26.7362 1.26123 26.4025C1.29096 26.3071 1.3589 26.2377 1.36315 26.125C1.37164 25.8476 1.41836 25.5745 1.48205 25.3014C1.59671 24.816 1.65192 24.3131 1.77507 23.8276C1.91945 23.2468 2.02562 22.6573 2.18699 22.0764C2.35685 21.4652 2.45452 20.8324 2.64562 20.2255C2.71356 20.0088 2.65411 19.766 2.77726 19.5883C2.90041 19.4106 2.89616 19.2112 2.96411 19.0248C2.98959 18.9598 2.96411 18.8817 2.99808 18.8124C3.15096 18.5046 3.18918 18.1578 3.29534 17.8327C3.42699 17.4426 3.56712 17.0568 3.6563 16.6537C3.73274 16.3156 3.92384 16.0078 3.97055 15.674C4.02151 15.3013 4.31452 15.0325 4.31452 14.6554C4.31452 14.638 4.34 14.6207 4.35274 14.6034C4.42069 14.5253 4.43342 14.4256 4.4589 14.3259C4.54808 13.9445 4.70521 13.5847 4.85808 13.2293C4.98973 12.9258 5.1426 12.6094 5.23178 12.3103C5.35493 11.8942 5.54603 11.5084 5.69466 11.1053C5.87301 10.6241 6.06411 10.1343 6.33589 9.6878C6.47178 9.46673 6.49726 9.19798 6.64164 8.98558C6.78178 8.77318 6.82849 8.50876 6.98986 8.30936C7.18945 8.06662 7.2574 7.75018 7.40178 7.4771C7.51644 7.25603 7.69055 7.0653 7.77123 6.81822C7.80096 6.72719 7.83069 6.62316 7.89014 6.54947C8.08973 6.28939 8.31055 6.04664 8.4337 5.73021C8.45069 5.68252 8.50164 5.66085 8.54411 5.63484C8.72247 5.52648 8.94754 5.43978 9.06644 5.30107C9.35945 4.95863 9.77137 4.81992 10.1026 4.55116C10.1705 4.49481 10.2342 4.43413 10.3192 4.38645C10.7396 4.1567 11.1558 3.9183 11.5592 3.66255C11.6823 3.58452 11.831 3.57585 11.9371 3.47615C12.1537 3.27676 12.4255 3.17272 12.6718 3.02968C13.037 2.81728 13.4362 2.66123 13.8141 2.46617C14.1623 2.28411 14.519 2.11939 14.8927 1.98935C15.2537 1.86364 15.6019 1.69459 15.9544 1.55588C16.2856 1.42583 16.6338 1.34347 16.9608 1.18743C17.3685 0.996698 17.8229 0.905669 18.2603 0.784297C18.7656 0.645586 19.2667 0.485201 19.7848 0.398507C20.2052 0.324817 20.6171 0.207779 21.0418 0.142759C21.4155 0.0864074 21.7977 0.0734032 22.1671 -0.00462165C22.3158 -0.0349647 22.4347 0.0300561 22.5111 0.155763C22.6682 0.402842 22.7999 0.662925 22.9018 0.940346C22.9527 1.07906 22.9145 1.21343 22.7616 1.24378C22.2903 1.33481 21.8444 1.51253 21.3815 1.62957C20.9356 1.74227 20.5025 1.87664 20.0736 2.04136C19.6064 2.21909 19.1351 2.38381 18.6637 2.55286C18.2178 2.71324 17.7847 2.91698 17.36 3.12938C17.1986 3.2074 17.0075 3.22041 16.8716 3.32444C16.2984 3.73624 15.6274 3.97031 15.0371 4.36477C14.5955 4.65953 14.1326 4.91962 13.6952 5.21871C13.2153 5.54381 12.7525 5.89493 12.2981 6.25037C12.2174 6.31539 12.0985 6.29805 12.0433 6.38475C11.9414 6.5408 11.7885 6.64917 11.6441 6.7532C11.0199 7.19534 10.523 7.7892 9.89452 8.22267C9.87329 8.24001 9.84781 8.26168 9.83932 8.28769C9.8011 8.38739 9.77986 8.45674 9.93274 8.50442C10.1196 8.56078 10.1875 8.40039 10.3149 8.36138C10.6971 8.23567 11.0368 8.0146 11.3808 7.81954C11.7885 7.5898 12.2429 7.45109 12.6378 7.19534C12.761 7.11732 12.8926 7.03929 13.0242 6.98294C13.2875 6.87457 13.5551 6.77921 13.8226 6.68818C13.9245 6.6535 13.967 6.54947 14.0689 6.50612C14.7059 6.2417 15.3301 5.95561 15.9671 5.68253C16.1922 5.58716 16.4215 5.50914 16.6551 5.43545C16.8716 5.36609 17.0967 5.24905 17.3133 5.15802C17.8356 4.93695 18.3834 4.76357 18.927 4.60318C19.5215 4.42979 20.1075 4.21739 20.719 4.08735C21.3263 3.95731 21.9208 3.76658 22.5323 3.64521C23.0929 3.53251 23.6577 3.41547 24.2267 3.35045C24.9486 3.26375 25.6621 3.12938 26.3882 3.06436C26.6006 3.04702 26.8129 3.04702 27.021 3.02534C27.8193 2.92998 28.6177 2.87363 29.4203 2.86496C31.0892 2.84762 32.7538 2.83028 34.4185 2.94732C34.5926 2.96032 34.771 2.96466 34.9451 2.99934C35.4462 3.1077 35.9642 3.13371 36.4696 3.18139C37.2467 3.25942 38.0111 3.4198 38.7797 3.52384C39.4507 3.61487 40.1089 3.79259 40.7671 3.96598C41.2852 4.10035 41.799 4.2434 42.3171 4.37344C42.6101 4.44713 42.8564 4.64219 43.1622 4.6682C43.2556 4.67687 43.3575 4.65953 43.451 4.71155C43.7907 4.90228 44.1729 4.97163 44.5338 5.09734C44.7377 5.16669 44.916 5.2924 45.1241 5.34875C45.26 5.38343 45.3959 5.40944 45.5233 5.47446C45.8036 5.61317 46.0966 5.73021 46.3811 5.85158C46.776 6.02063 47.171 6.18102 47.5616 6.35007C47.9099 6.50179 48.2496 6.67951 48.6021 6.81389C48.9333 6.93959 49.2263 7.13465 49.5533 7.26903C49.7656 7.35572 49.9695 7.4901 50.1775 7.59847C50.4281 7.72851 50.7041 7.8152 50.9334 7.97125C51.2434 8.17932 51.5832 8.3137 51.9101 8.47842C51.9696 8.50876 52.0758 8.60412 52.1267 8.47842C52.1649 8.38305 52.1522 8.27902 52.046 8.19666C51.8592 8.04494 51.6638 7.91057 51.5025 7.71117C51.2562 7.40341 50.9037 7.19968 50.6064 6.93526C50.2795 6.64483 49.9397 6.35441 49.5703 6.11166C49.3325 5.95561 49.1456 5.72587 48.9078 5.57849C48.343 5.22738 47.8292 4.79391 47.2347 4.49048C47.1455 4.44713 47.069 4.35177 46.9586 4.42979C46.9459 4.42979 46.9332 4.42546 46.9204 4.42112C46.8864 4.3431 46.844 4.26941 46.7718 4.21306C46.4703 3.98765 46.1306 3.8186 45.7993 3.66255C45.2218 3.38946 44.6443 3.11204 44.0582 2.86063C43.5826 2.65256 43.0985 2.46617 42.6059 2.31445C42.4997 2.27977 42.4318 2.18441 42.3256 2.17574C41.7906 2.11505 41.3192 1.8333 40.8011 1.70759C40.266 1.57755 39.7395 1.37815 39.1959 1.24378C39.009 1.19609 38.9836 1.11373 39.0643 0.957685C39.1874 0.719276 39.336 0.485201 39.4252 0.233788C39.4932 0.0430602 39.5951 -0.0176258 39.7692 0.00404778C40.593 0.112416 41.4253 0.147093 42.2322 0.389837C42.6993 0.532883 43.1877 0.589234 43.6548 0.740949C44.0497 0.870991 44.4574 0.940346 44.8396 1.10507C45.0222 1.18309 45.209 1.23511 45.3959 1.30446C45.6974 1.41283 45.9989 1.51253 46.2962 1.63824C46.6486 1.78562 46.9884 1.96334 47.3451 2.10205C47.7867 2.27977 48.2199 2.47484 48.6403 2.69157C49.0819 2.92131 49.5193 3.15972 49.9567 3.3938C50.0629 3.45015 50.1648 3.5195 50.2667 3.57152C50.5088 3.69723 50.7253 3.86628 50.9674 4.00066C51.2179 4.13937 51.4727 4.26941 51.7063 4.43413C52.0715 4.68988 52.4664 4.88494 52.8147 5.16669C53.01 5.32274 53.2478 5.42244 53.3752 5.65652C53.3837 5.67386 53.4049 5.7042 53.4134 5.69986C53.647 5.63918 53.6512 5.85158 53.7234 5.97295C53.9315 6.3284 54.1438 6.68384 54.3392 7.04796C54.5473 7.44242 54.7129 7.86289 54.9422 8.24001C55.2225 8.69949 55.3966 9.21098 55.6599 9.67913C55.8425 10.0129 55.9826 10.3684 56.1143 10.7281C56.2204 11.0186 56.3648 11.2873 56.4795 11.5691C56.6918 12.0936 56.9084 12.6181 57.1122 13.1426C57.3203 13.6801 57.4901 14.2306 57.7025 14.7681C57.8554 15.1539 57.97 15.5527 58.1059 15.9471C58.2248 16.2939 58.3734 16.6364 58.4584 16.9918C58.539 17.3256 58.658 17.6463 58.7429 17.9758C58.8406 18.3616 59.0062 18.7387 59.0826 19.1245C59.1888 19.649 59.3289 20.1691 59.469 20.6806C59.571 21.0491 59.6517 21.4219 59.7621 21.7903C59.9277 22.3408 59.9914 22.9174 60.1527 23.4722C60.2589 23.8493 60.3354 24.2394 60.4033 24.6209C60.501 25.1714 60.6241 25.7219 60.709 26.2768C60.7727 26.7102 60.8492 27.1394 60.9426 27.5685C60.9851 27.7636 60.9256 27.9673 60.9978 28.145C61.1677 28.5438 61.1507 28.9729 61.2229 29.3847C61.3163 29.9136 61.3418 30.4511 61.4225 30.9843C61.5159 31.5998 61.6306 32.2197 61.639 32.8395C61.6475 33.3077 61.8217 33.7455 61.8047 34.218C61.7962 34.413 61.8047 34.6211 61.8259 34.8205C61.9193 35.6137 61.9915 36.407 61.9958 37.2046C61.9958 37.3996 61.9236 37.5557 61.7962 37.6597C61.3375 38.0282 61.0233 38.5353 60.5816 38.9168C60.4925 38.9948 60.4033 39.0772 60.3226 39.1595C60.123 39.3633 59.8343 39.489 59.7451 39.7967H59.7493C59.6941 39.7924 59.6304 39.7751 59.5837 39.8141C59.3756 39.9961 59.1081 40.1218 58.934 40.3169C58.5518 40.7504 58.0464 40.9974 57.6133 41.3572C57.3585 41.5696 57.074 41.769 56.7555 41.9077C56.5984 41.9771 56.3903 42.0291 56.2841 42.1505C56.093 42.3586 55.8425 42.4626 55.6217 42.584C55.0144 42.9221 54.4114 43.2905 53.7532 43.5116C53.3667 43.6416 53.0185 43.8497 52.6406 43.9971C52.0885 44.2095 51.528 44.4045 50.9759 44.6083C50.4153 44.812 49.8336 44.9507 49.256 45.1024C48.6063 45.2715 47.9566 45.4405 47.2984 45.5662C47.1667 45.5922 47.0266 45.5662 46.9034 45.6096C46.5297 45.7483 46.1306 45.7743 45.7441 45.8003C45.4341 45.822 45.1199 45.8393 44.8269 45.9174C44.5253 45.9997 44.2238 45.8437 43.9351 45.9737C43.8714 45.9997 43.8416 45.9347 43.7992 45.8957C43.6208 45.731 43.4764 45.5359 43.3405 45.3365C43.073 44.9377 42.746 44.5823 42.4827 44.1748C42.4148 44.0664 42.3638 43.88 42.1643 43.906C42.143 43.6243 41.9477 43.4466 41.7863 43.2515C41.6419 43.0781 41.6547 42.9351 41.8712 42.87C42.1388 42.792 42.3978 42.6967 42.6441 42.5709C42.8012 42.4929 42.9796 42.4626 43.1325 42.3802C43.5189 42.1765 43.9308 42.0334 44.3173 41.834C44.8226 41.574 45.3492 41.3572 45.8375 41.0581C46.3471 40.7504 46.8737 40.4686 47.3706 40.1392C47.7443 39.8921 48.118 39.6494 48.4916 39.4066C48.7889 39.2159 49.0395 38.9688 49.341 38.7781C49.4556 38.7044 49.6637 38.648 49.6297 38.4226C49.9864 38.3316 50.2455 38.0715 50.513 37.8418C50.6914 37.6901 50.8697 37.5253 51.0354 37.3476C51.3921 36.9618 51.8719 36.7017 52.1777 36.2509C52.2923 36.0819 52.5386 36.0342 52.6193 35.8695C52.8019 35.501 53.2351 35.3537 53.371 34.9549C53.3752 34.9419 53.3922 34.9375 53.4049 34.9288C53.5408 34.8595 53.5748 34.7164 53.6512 34.5994C53.3667 34.5084 53.354 34.491 53.1629 34.6991C52.8062 35.0892 52.3306 35.293 51.9229 35.6051C51.5279 35.9085 51.0863 36.1556 50.6659 36.4243C50.0799 36.7928 49.4981 37.1612 48.8526 37.404C48.7974 37.4256 48.7592 37.4603 48.7422 37.521C48.7252 37.5774 48.6827 37.6164 48.6275 37.6424C47.723 38.0282 46.8525 38.492 45.9437 38.8648C45.1666 39.1855 44.364 39.4326 43.5911 39.7621C43.5189 39.7924 43.451 39.8444 43.3788 39.8531C42.9456 39.9181 42.5379 40.0872 42.1133 40.1869C41.6164 40.3039 41.1323 40.4729 40.6312 40.5726C40.2193 40.655 39.7989 40.7114 39.3955 40.8327C38.9199 40.9801 38.4145 40.9758 37.9304 41.1058C37.7181 41.1622 37.4888 41.1752 37.2637 41.1925C36.9962 41.2142 36.7456 41.3269 36.4781 41.3269C36.0322 41.3269 35.5905 41.3832 35.1532 41.4309C34.4822 41.5046 33.807 41.5436 33.136 41.5826C32.2825 41.626 31.4289 41.613 30.5753 41.6347C30.1592 41.6477 29.7473 41.574 29.3269 41.587C28.8215 41.6 28.3162 41.5393 27.8108 41.5089C27.0252 41.4656 26.2438 41.3919 25.4625 41.2879C24.8552 41.2055 24.2437 41.1448 23.6407 41.0191C23.3647 40.9628 23.0844 40.9324 22.8084 40.8804C22.1332 40.7504 21.4622 40.6117 20.7997 40.4253C20.2774 40.2779 19.7508 40.1132 19.2242 39.9788C18.4811 39.7924 17.7889 39.4716 17.0585 39.2679C16.5659 39.1335 16.1115 38.8734 15.6274 38.6914C15.1858 38.5267 14.7569 38.3143 14.3364 38.0975C13.7334 37.7941 13.1474 37.4603 12.5401 37.1569C12.2216 36.9965 11.9499 36.7581 11.6186 36.6151C11.3766 36.511 11.1345 36.3723 10.9307 36.2119C10.5782 35.9388 10.196 35.7091 9.84356 35.4317C9.47411 35.1456 9.04945 34.9288 8.71822 34.5864C8.63754 34.504 8.53562 34.4737 8.45493 34.5561C8.37425 34.6384 8.40397 34.7425 8.48466 34.8248C8.8626 35.2149 9.14712 35.7004 9.60151 36.0125C9.63973 36.0385 9.65671 36.0992 9.69493 36.1296C9.84356 36.2553 9.89452 36.459 10.0601 36.5674C10.2088 36.6627 10.3659 36.7581 10.4721 36.9011C10.7099 37.2262 11.0581 37.43 11.3469 37.6944C11.8989 38.2059 12.5189 38.648 13.1177 39.1075C13.1941 39.1639 13.2323 39.2592 13.3215 39.2939C13.4786 39.3546 13.623 39.4326 13.7632 39.5323C13.8905 39.6624 14.0137 39.8011 14.2005 39.7837ZM36.6819 21.76C36.5758 21.7556 36.4866 21.7817 36.4356 21.89C36.3422 22.0894 36.1893 22.2498 36.0789 22.4449C35.8453 22.8567 35.6585 23.2901 35.4844 23.7323C35.3485 24.0791 35.3442 24.4475 35.2211 24.7899C35.1659 24.946 35.1532 25.1237 35.1574 25.3014C35.1659 25.7219 35.1701 26.138 35.1574 26.5585C35.1447 26.927 35.2848 27.2607 35.3655 27.6075C35.4547 27.9846 35.599 28.3531 35.7604 28.7085C35.8453 28.8993 35.926 29.0857 36.0619 29.246C36.1086 29.3024 36.1426 29.3631 36.1723 29.4281C36.3549 29.8182 36.6692 30.1086 36.9579 30.3991C37.2595 30.7025 37.6077 30.9756 38.0069 31.1663C38.3975 31.3527 38.7797 31.5304 39.1959 31.6561C39.6758 31.7992 40.1641 31.7255 40.6482 31.7298C40.8818 31.7298 41.1238 31.6691 41.3532 31.6041C41.8245 31.4697 42.2662 31.253 42.6823 30.9886C42.7715 30.9322 42.8097 30.8672 42.8479 30.7849C42.9116 30.7805 42.9796 30.7935 43.0306 30.7502C43.2514 30.5638 43.4934 30.3991 43.6803 30.1823C43.9181 29.9049 44.1219 29.5971 44.3173 29.285C44.6697 28.7259 44.899 28.106 45.0647 27.4645C45.0901 27.3604 45.0901 27.2521 45.1156 27.148C45.2982 26.3678 45.3407 25.5789 45.1623 24.803C45.0859 24.4648 45.2048 24.0574 44.8863 23.7843C44.8778 23.7756 44.8821 23.7583 44.8821 23.7409C44.674 22.8567 44.1559 22.1501 43.5911 21.4869C43.2811 21.1228 42.8904 20.841 42.4615 20.6156C42.1982 20.4812 41.9477 20.3079 41.6674 20.2255C41.1238 20.0651 40.5675 20.0261 39.9985 20.0218C39.4082 20.0174 38.8562 20.1561 38.3423 20.3989C37.7648 20.672 37.2212 21.0187 36.7838 21.5129C36.7159 21.5866 36.6777 21.6603 36.6819 21.76ZM26.7577 25.7393C26.7747 25.5052 26.7237 25.1151 26.6558 24.7379C26.3288 22.9824 25.4964 21.5606 23.9422 20.6676C22.7319 19.9697 21.4537 19.9134 20.167 20.4162C19.203 20.7933 18.4556 21.4696 17.8866 22.3365C17.0373 23.6369 16.7358 25.076 16.9014 26.6192C17.0245 27.7636 17.411 28.7996 18.1074 29.7099C18.9695 30.8369 20.0948 31.5261 21.5047 31.6301C22.8763 31.7298 24.0653 31.2313 25.0293 30.2474C26.1971 29.0553 26.7237 27.5728 26.7577 25.7393Z" fill="white"/>
</svg>
